<svg width="55" height="55" viewBox="0 0 55 55" fill="none" xmlns="http://www.w3.org/2000/svg">
<g id="Group 8">
<circle id="Ellipse 1" cx="27.5" cy="27.5" r="27.5" fill="#EB5757"/>
<g id="delete 1">
<g id="Group">
<path id="Vector" d="M27.4544 40.6083C26.6776 40.6083 26.0836 40.0143 26.0836 39.2376V23.017C26.0836 22.2402 26.6777 21.6462 27.4544 21.6462C28.2311 21.6462 28.8251 22.2402 28.8251 23.017V39.2375C28.8251 40.0143 28.2311 40.6083 27.4544 40.6083Z" fill="white"/>
<path id="Vector_2" d="M32.1606 40.6083H32.1149C31.3381 40.5627 30.7899 39.9229 30.7899 39.1919L31.3839 22.9713C31.4295 22.1945 32.0693 21.6006 32.8003 21.6462C33.5771 21.6919 34.1254 22.3316 34.1254 23.0627L33.5314 39.2833C33.4857 40.0143 32.8916 40.6083 32.1606 40.6083Z" fill="white"/>
<path id="Vector_3" d="M22.748 40.6083C22.017 40.6083 21.423 40.0143 21.3773 39.2833L20.7833 23.0627C20.7377 22.2859 21.3316 21.692 22.1084 21.6462C22.8852 21.6006 23.4791 22.1945 23.5248 22.9713L24.1188 39.1919C24.1645 39.9687 23.5706 40.5626 22.7938 40.6083H22.748Z" fill="white"/>
<path id="Vector_4" d="M42.8525 16.2546H39.6084C39.6084 16.2546 39.6084 16.2546 39.5627 16.2546H34.2167V13.2846C34.2167 12.0052 33.2115 11 31.9322 11H22.9765C21.6971 11 20.692 12.0052 20.692 13.2846V16.2545H15.2546H12.0561C11.2793 16.2545 10.6854 16.8485 10.6854 17.6252C10.6854 18.4019 11.2794 18.9959 12.0561 18.9959H14.0208L16.3055 44.7663C16.3511 45.4517 16.9452 46 17.6762 46H37.2781C38.0091 46 38.6031 45.4517 38.6488 44.7663L40.9333 18.9961H42.9438C43.7206 18.9961 44.3145 18.4021 44.3145 17.6254C44.3145 16.8487 43.6292 16.2546 42.8525 16.2546ZM23.4334 13.7415H31.4752V16.2546H23.4334V13.7415ZM35.9987 43.2585H18.8642L16.7167 18.9961H38.0549L35.9987 43.2585Z" fill="white"/>
</g>
</g>
</g>
</svg>
