<svg width="80" height="80" viewBox="0 0 80 80" fill="none" xmlns="http://www.w3.org/2000/svg">
<g id="add 1" clip-path="url(#clip0)">
<path id="Vector" d="M40.0003 77.1429C60.5137 77.1429 77.1431 60.5135 77.1431 40C77.1431 19.4866 60.5137 2.85718 40.0003 2.85718C19.4868 2.85718 2.85742 19.4866 2.85742 40C2.85742 60.5135 19.4868 77.1429 40.0003 77.1429Z" fill="white"/>
<g id="Group">
<path id="Vector_2" d="M40.0001 80C17.9047 80 0 62.0953 0 40.0001C0 17.9049 17.9047 0 40.0001 0C62.0955 0 80.0002 17.9047 80.0002 40.0001C80.0002 62.0955 62.0953 80 40.0001 80ZM40.0001 5.7143C21.0478 5.7143 5.7143 21.0476 5.7143 40.0001C5.7143 58.9526 21.0476 74.2857 40.0001 74.2857C58.9526 74.2857 74.2857 58.9524 74.2857 40.0001C74.2857 21.0478 58.9524 5.7143 40.0001 5.7143Z" fill="#9D9ABA"/>
<path id="Vector_3" d="M56.1905 37.1429H42.8572V23.8096C42.8572 22.1905 41.6191 20.9525 40.0001 20.9525C38.381 20.9525 37.1431 22.1906 37.1431 23.8096V37.1429H23.8097C22.1906 37.1429 20.9526 38.3811 20.9526 40C20.9526 41.6191 22.1908 42.8571 23.8097 42.8571H37.1431V56.1904C37.1431 57.8095 38.3812 59.0475 40.0001 59.0475C41.6192 59.0475 42.8572 57.8094 42.8572 56.1904V42.8571H56.1905C57.8097 42.8571 59.0476 41.6189 59.0476 40C59.0476 38.3811 57.8095 37.1429 56.1905 37.1429Z" fill="#9D9ABA"/>
</g>
</g>
<defs>
<clipPath id="clip0">
<rect width="80" height="80" fill="white"/>
</clipPath>
</defs>
</svg>
