<svg width="80" height="81" viewBox="0 0 80 81" fill="none" xmlns="http://www.w3.org/2000/svg">
<g id="home 1" clip-path="url(#clip0)">
<path id="Vector" d="M72.3933 33.7707V78.1888H49.2553V54.7614H30.7449V78.1888H7.60693V33.7707L39.0747 2.84683L72.3933 33.7707Z" fill="#EFF0F4"/>
<path id="Vector_2" d="M72.3934 81.0002H49.2554C47.682 81.0002 46.4789 79.7819 46.4789 78.189V57.573H33.5216V78.189C33.5216 79.7821 32.3184 81.0002 30.7452 81.0002H7.60704C6.03359 81.0002 4.83057 79.7819 4.83057 78.189V33.7709C4.83057 33.0212 5.10816 32.2716 5.66353 31.7093L37.1311 0.785411C38.1492 -0.245398 39.8151 -0.245398 40.9256 0.691783L74.2444 31.6157C74.7998 32.178 75.17 32.9276 75.17 33.6773V78.0954C75.17 79.7819 73.9668 81.0002 72.3934 81.0002ZM52.0319 75.3776H69.6167V34.9892L39.1672 6.68902L10.3835 34.9892V75.3778H27.9683V54.7616C27.9683 53.1685 29.1715 51.9504 30.7448 51.9504H49.2552C50.8287 51.9504 52.0317 53.1687 52.0317 54.7616V75.3776H52.0319Z" fill="#9D9ABA"/>
</g>
<defs>
<clipPath id="clip0">
<rect width="80" height="81" fill="white"/>
</clipPath>
</defs>
</svg>
