<svg width="50" height="50" viewBox="0 0 50 50" fill="none" xmlns="http://www.w3.org/2000/svg">
<g id="chat 1">
<g id="Group">
<path id="Vector" d="M33.7062 19.403H16.2934C15.2361 19.403 14.4277 18.5945 14.4277 17.5373C14.4277 16.4802 15.2362 15.6717 16.2934 15.6717H33.7063C34.7636 15.6717 35.5719 16.4802 35.5719 17.5373C35.5719 18.5945 34.7635 19.403 33.7062 19.403Z" fill="#9D9ABA"/>
<path id="Vector_2" d="M33.7062 26.8657H16.2934C15.2361 26.8657 14.4277 26.0572 14.4277 25.0001C14.4277 23.9429 15.2362 23.1345 16.2934 23.1345H33.7063C34.7636 23.1345 35.5719 23.9429 35.5719 25.0001C35.5719 26.0572 34.7635 26.8657 33.7062 26.8657Z" fill="#9D9ABA"/>
<path id="Vector_3" d="M33.7062 34.3284H16.2934C15.2361 34.3284 14.4277 33.5199 14.4277 32.4628C14.4277 31.4055 15.2362 30.5971 16.2934 30.5971H33.7063C34.7636 30.5971 35.5719 31.4056 35.5719 32.4628C35.5719 33.5199 34.7635 34.3284 33.7062 34.3284Z" fill="#9D9ABA"/>
<path id="Vector_4" d="M3.91812 50C3.35842 50 2.79872 49.7512 2.42555 49.3159C1.99025 48.7562 1.92799 48.0721 2.17677 47.4503L5.53507 39.6144C4.10476 37.8109 2.98537 35.7587 2.11464 33.582C0.995244 30.7214 0.435547 27.6742 0.435547 24.6269C0.435547 11.0074 11.4431 0 25.0002 0C38.5573 0 49.5648 11.0074 49.5648 24.5646C49.5648 38.1219 38.5574 49.1293 25.0002 49.1293C22.2017 49.1293 19.4654 48.694 16.9156 47.7611L4.22903 49.9999C4.10476 50 4.04251 50 3.91812 50ZM25.0002 3.73135C13.4952 3.73135 4.1669 13.0597 4.1669 24.5646C4.1669 27.1766 4.66446 29.7263 5.59721 32.1517C6.46782 34.3284 7.64947 36.3184 9.14203 37.9975C9.63959 38.5572 9.70173 39.3034 9.45295 39.9253L6.96538 45.709L16.7913 43.9676C17.1022 43.9055 17.4753 43.9676 17.7863 44.092C20.025 44.9626 22.4505 45.3979 25.0002 45.3979C36.5051 45.3979 45.8335 36.0696 45.8335 24.5646C45.8335 13.0597 36.5053 3.73135 25.0002 3.73135Z" fill="#9D9ABA"/>
</g>
</g>
</svg>
