<svg width="50" height="50" viewBox="0 0 50 50" fill="none" xmlns="http://www.w3.org/2000/svg">
<g id="search 1" clip-path="url(#clip0)">
<path id="Vector" d="M49.3902 46.5447L38.9566 36.0433C42.1409 32.2493 44.038 27.3034 44.038 22.0189C44.038 9.89167 34.1463 0 22.019 0C9.89167 0 0 9.89167 0 22.019C0 34.1463 9.89167 44.038 22.019 44.038C27.3712 44.038 32.2494 42.1409 36.0434 38.9567L46.5448 49.3903C46.9514 49.7968 47.4933 50 47.9675 50C48.4418 50 48.9838 49.7968 49.3902 49.3903C50.2033 48.645 50.2033 47.3578 49.3902 46.5447ZM4.06505 22.019C4.06505 12.1273 12.1273 4.06505 22.019 4.06505C31.9107 4.06505 39.9729 12.1273 39.9729 22.019C39.9729 31.9107 31.9107 39.9729 22.019 39.9729C12.1273 39.9729 4.06505 31.9105 4.06505 22.019Z" fill="#9D9ABA"/>
</g>
<defs>
<clipPath id="clip0">
<rect width="50" height="50" fill="white"/>
</clipPath>
</defs>
</svg>
